<svg width="11" height="13" viewBox="0 0 11 13" fill="none" xmlns="http://www.w3.org/2000/svg">
<circle cx="5.5" cy="5.5" r="5.5" fill="#F1EFF4"/>
<path d="M6.17383 2.25098C6.17383 3.07129 6.11361 3.89648 5.99316 4.72656C5.87272 5.55339 5.8125 6.40462 5.8125 7.28027C5.8125 7.36165 5.7832 7.43164 5.72461 7.49023C5.66602 7.54883 5.59603 7.57812 5.51465 7.57812C5.43327 7.57812 5.36165 7.54883 5.2998 7.49023C5.24121 7.43164 5.21191 7.36165 5.21191 7.28027C5.21191 6.39811 5.15169 5.54362 5.03125 4.7168C4.91081 3.88997 4.85059 3.06152 4.85059 2.23145C4.85059 2.00358 4.91243 1.82617 5.03613 1.69922C5.16309 1.57227 5.32259 1.50879 5.51465 1.50879C5.70996 1.50879 5.86784 1.57389 5.98828 1.7041C6.11198 1.83105 6.17383 2.01335 6.17383 2.25098ZM5.50488 10.1221C5.26074 10.1221 5.05566 10.0391 4.88965 9.87305C4.72363 9.70703 4.64062 9.50195 4.64062 9.25781C4.64062 9.01367 4.72363 8.81022 4.88965 8.64746C5.05566 8.48145 5.26074 8.39844 5.50488 8.39844C5.74902 8.39844 5.95247 8.48145 6.11523 8.64746C6.28125 8.81022 6.36426 9.01367 6.36426 9.25781C6.36426 9.50195 6.28125 9.70703 6.11523 9.87305C5.95247 10.0391 5.74902 10.1221 5.50488 10.1221Z" fill="#CBC7DA"/>
</svg>
